<svg id="Capa_1" data-name="Capa 1" xmlns="http://www.w3.org/2000/svg" viewBox="0 0 673.21 325.53"><defs><style>.cls-1{font-size:43.23px;font-family:Montserrat-Thin, Montserrat;font-weight:200;}.cls-1,.cls-2,.cls-3{fill:#17222e;}.cls-1,.cls-2{stroke:#17222e;stroke-miterlimit:10;stroke-width:2px;}.cls-4{fill:#fbbe12;}.cls-5{fill:#e30613;}.cls-6{fill:#95c11f;}</style></defs><text class="cls-1" transform="translate(299.49 266.88)">virtual assistant</text><line class="cls-2" x1="253.57" y1="224.45" x2="608.82" y2="224.45"/><path class="cls-3" d="M66.55,153c-5.27,1.51-10.54,3.58-14.86,7a17.13,17.13,0,0,0-3,3.2,6.14,6.14,0,0,0,.95,8.28c3.19,3.2,7.15,4.14,11.47,3.77a4.24,4.24,0,0,0,2.45-1.13,13,13,0,0,1,3-2.21,57.18,57.18,0,0,1,.54-10.63c.4-2.6.84-5.46,1.48-8l.18-.77C68,152.62,67.29,152.8,66.55,153ZM198.63,39.74c-.56,0-1.13-.19-1.69-.19-6.59-.57-12,1.5-15.81,7.33-9.22,14.3-19.56,27.85-29.72,41.59-8.66,11.85-17.31,23.7-26.16,35.56-5.64,7.52-11.29,15.24-16.74,22.95a3.59,3.59,0,0,1-3,1.7c-7.34.56-14.68.94-21.83,1.5a114.53,114.53,0,0,0-14.62,2.21c-.16,1.14-.32,2.26-.43,2.9A99.36,99.36,0,0,0,68,165.36,51.63,51.63,0,0,0,68.2,171l1.17-.54a123.11,123.11,0,0,1,21.83-7.15,24,24,0,0,1,5.27-.94,5.17,5.17,0,0,1-1.13,2.26c-6.3,8.4-12.69,16.72-19,25.07a23.5,23.5,0,0,0,10.88,5.4c8.08-10.79,16.09-21.57,23.91-32.54a3.74,3.74,0,0,1,3-1.88c6.59-.38,13.36-.38,19.95-.38a164.27,164.27,0,0,1,16.74.57l5.83.56c1.51.38,1.51.56,1.51,2.07,0,1.13-.19,2.07-.19,3.2-.1,4.45-.15,8.85,0,13.26A235.34,235.34,0,0,1,185,175.91c0-1.23,0-2.48.06-3.72,0-4.7.18-9.21.56-13.92.38-6.77.94-13.55,1.51-20.32,1.12-10.91,3-22,4.7-32.93,2.44-13.54,5.46-27.09,8.47-40.64a136.47,136.47,0,0,0,3.19-17.5C203.71,42.93,202.4,40.86,198.63,39.74ZM173,80c-2.82,9.41-4.89,18.81-6.77,28.22-1.88,10-4,19.76-5.46,29.92-.37,3.57-.94,7.15-1.31,10.91a2.37,2.37,0,0,0-.19,1.13c-.38,1.69-.57,1.69-2.26,1.32a131.38,131.38,0,0,0-25.78-2.82c-2.44-.19-5.08-.19-7.52-.38-.57,0-1.13.19-1.32-.38-.38-.56.19-.94.57-1.31,4.89-6.78,9.78-13.36,14.67-20.14,11.1-15.43,22.2-30.85,33.68-46.09.56-.76,1.13-1.51,1.88-2.45A2.47,2.47,0,0,1,173,80Zm64.73,156.73a12.05,12.05,0,0,0-4.52-.38c-1.88.19-3.76,1-5.64,1.32-3.39.57-7,.94-10.54,1.51a14.64,14.64,0,0,1-9.59-2.26,27.78,27.78,0,0,1-7.34-6.77c-4.89-5.84-7.9-12.61-10.16-19.76a106.47,106.47,0,0,1-4.73-26.45,268.28,268.28,0,0,0-26.83,3.28h0c.15,1.75.33,3.51.56,5.28,1.32,8.66,3.2,17.31,6.59,25.41,3.57,8.46,8.28,16.18,15.24,22.39a37.54,37.54,0,0,0,25,10c4.33.19,8.47-.57,12.61-1.13A71.91,71.91,0,0,0,235,244.63a10.7,10.7,0,0,0,4-2.44C241,240.31,240.59,237.86,237.77,236.73ZM74.45,192.26q-4,5.28-7.9,10.6c-4.52,6.4-9.22,12.8-13.36,19.38-.38.76-.75,1.32-1.13,2.07-.56,1.7-.19,2.83,1.51,3.58a6.23,6.23,0,0,0,3.2.75,10.5,10.5,0,0,0,8.46-4.33c4.33-5.64,8.66-11.47,13-17.12l6.55-8.76A25.47,25.47,0,0,1,74.45,192.26Z"/><path class="cls-3" d="M275.4,25.81a20,20,0,0,0-12.8-.19,13.49,13.49,0,0,0-4.89,3,36,36,0,0,0-3.39,4.52c-2.25,4-4.51,8.09-6.58,12.23-3.2,6.58-6.21,13.17-8.84,20.13-3,7.72-6.4,15.24-9,23.14-4.52,12.8-8.1,26-11.67,38.95-2.26,7.72-3.76,15.62-6.21,23.33a168.32,168.32,0,0,0-5.43,24.26,131.77,131.77,0,0,1,26.38,3.28,157.39,157.39,0,0,1,5-19.63c6-20.14,12.41-40.08,19-60,4-11.85,8.28-23.7,13.17-35.56,3-7.15,6.21-14.3,8.47-22a44.93,44.93,0,0,0,1.88-7.15C281,30,279.35,27.32,275.4,25.81ZM237.61,189.45c-.68.73-1.38,1.44-2.1,2.12a27.24,27.24,0,0,1-4.14,3.58,7,7,0,0,1,0-2.82c.09-1.53.18-3.1.31-4.69a120.08,120.08,0,0,0-25.87-3.94A35,35,0,0,0,209,199.29a12.3,12.3,0,0,0,4.52,5.83c5.64,3.95,11.66,4.33,18.06,2.26a24.6,24.6,0,0,0,10.91-7.9c1.67-2,3.32-4,5-6A86.6,86.6,0,0,0,237.61,189.45Zm33.84-35.51a8.9,8.9,0,0,0-3.06,1.08c-.24.13-.48.28-.71.43a16.22,16.22,0,0,0-3.76,3.39c-6.58,7.33-13,14.67-19.19,22.2l-.63.75a86.26,86.26,0,0,1,9.57,4.13q4.4-5.35,8.75-10.71.94-1.12,1.86-2.28c3.09-3.81,6.07-7.76,9.05-11.84a9.5,9.5,0,0,0,1.69-3.38A3,3,0,0,0,271.45,153.94Z"/><path class="cls-3" d="M368.24,164c-3.13.18-6.28.44-9.42.77-5.11,4-10.29,8-15.39,12A120.28,120.28,0,0,1,316,193.36a56.78,56.78,0,0,1-13.55,4.32c-2.63.38-4.33-.56-5.83-2.63a18.61,18.61,0,0,1-1.75-3.69,61.25,61.25,0,0,0-10.36,15,36.34,36.34,0,0,0,20.76,1.45,54.32,54.32,0,0,0,22-9.22c12.23-8.09,23.89-16.74,35.37-25.77q1.89-1.51,3.75-3c2.35-1.94,4.66-3.93,6.91-6Q370.78,163.86,368.24,164Zm-20.67-48.55c-3-2.82-6.78-3.95-10.73-4.89a43.3,43.3,0,0,0-15.61-.94,52.91,52.91,0,0,0-19.38,6,68,68,0,0,0-18.25,14.49A78.3,78.3,0,0,0,268.39,155q-1.29,3.38-2.29,6.91a44.16,44.16,0,0,0-1.82,11c0,.79-.06,1.57-.06,2.36a40,40,0,0,0,2.63,14.11,29.13,29.13,0,0,0,8.79,11.95,67.75,67.75,0,0,1,17.14-22.28l.25-.21a78.2,78.2,0,0,1,.73-8.08c.18-.94.56-1.51,1.69-1.32a55.37,55.37,0,0,0,10.62.3,112.63,112.63,0,0,1,31.75-12,53.11,53.11,0,0,0,6.36-6.94,47.78,47.78,0,0,0,7.9-15.8,22.53,22.53,0,0,0,1.32-7.9C353.4,122.23,351.14,118.47,347.57,115.46Zm-21.83,20.32a46,46,0,0,1-11.47,16.56,19.61,19.61,0,0,1-10.73,5.45c-1.5.19-3,.57-4.51.76-1.32.18-1.51-.19-.95-1.32a50.61,50.61,0,0,1,3.77-7.9,71.23,71.23,0,0,1,12.6-16.56,44.2,44.2,0,0,1,9.6-6.77,2.71,2.71,0,0,1,1.32-.38c.56-.38,1.13-.19,1.31.75a10.86,10.86,0,0,0,.38,2.45A41.18,41.18,0,0,1,325.74,135.78Z"/><path class="cls-3" d="M467.61,114.52a14.15,14.15,0,0,0-6.4-3.39,26.29,26.29,0,0,0-16.55.57C436.75,114.33,430,119,424,124.87a258.91,258.91,0,0,0-19.38,21.26c-.19.19-.38.56-.75.56-.38-.19-.19-.37,0-.75,2.63-5.83,4.7-12.23,7.15-18.25a34.43,34.43,0,0,0,2.63-8.84,5.33,5.33,0,0,0-1.69-4.52,6.81,6.81,0,0,0-2.26-1.5,22.34,22.34,0,0,0-19.57,0A8.06,8.06,0,0,0,386,117c-1.5,3.2-3,6.59-4.32,9.79q-5.28,13.42-9.94,27c4.88-.15,9.73-.16,14.52-.06,10,.33,20,1.19,29.91,2.46a215.84,215.84,0,0,1,22.33-24.53c.37-.19.75-.94,1.5-.75.19.75-.19,1.13-.37,1.69a62.21,62.21,0,0,1-2.26,6.21c-2.68,6.37-4.92,12.92-7.08,19.46q7.92,1.31,15.75,2.9,5,1.07,10.05,2.08c1.09-2.7,2.19-5.38,3.29-8.07,2.82-6.77,5.83-13.36,8.09-20.51a50,50,0,0,0,2.64-12.79C470.24,119,469.68,116.4,467.61,114.52Zm10.76,60.69c-3.12-.36-6.24-.78-9.36-1.23-3.78,4.33-7.55,8.65-11.37,13a116.44,116.44,0,0,1-9.79,9.41c-.56.37-.94.94-1.88.75a10.2,10.2,0,0,1,.19-3.39,80.74,80.74,0,0,1,4.33-16.37q1.13-3,2.29-6c-8.49-1.45-17-3-25.47-4.26l-.15.45a77.69,77.69,0,0,0-4,25.4A18.22,18.22,0,0,0,430,206.34c5.83,4.7,14.68,4.7,20.7.56a43.51,43.51,0,0,0,7.33-7.15c4.33-5.45,9-10.72,13.74-16q3.33-3.73,6.52-7.53c.27-.31.53-.63.79-.94Zm10.69-19.11a10.54,10.54,0,0,0-4.7,1.51,14.94,14.94,0,0,0-2.81,2.13,27.15,27.15,0,0,0-2.65,2.95c-1.2,1.36-2.39,2.71-3.57,4.07,1.42.23,2.84.44,4.26.64q2.69.39,5.37.72c1.51-1.87,3-3.75,4.48-5.62a11.13,11.13,0,0,0,1.88-3.2C492.07,157.23,491.13,156.1,489.06,156.1ZM397.68,164c-7.71-.41-16-.57-24.4-.27q-2.5.09-5,.24-.94,2.9-1.87,5.79-1.23,3.87-2.43,7.75a87.94,87.94,0,0,0-4.33,20.88c-.37,5.09,1.88,8.28,6.59,9.41,5.27,1.13,11.66.57,16-5.64,2.63-3.95,5.46-7.9,8.28-11.67,6.35-8.6,12.59-17.21,19-25.66C405.53,164.49,401.61,164.2,397.68,164Z"/><path class="cls-3" d="M573.46,110.16a16.72,16.72,0,0,0-9.7,2.67,14.37,14.37,0,0,0-4,4.32c-.56.76-1.13,1.7-1.69,2.64-.75,1.13-.94,1.31-1.88.19-.38-.38-.57-.76-.94-1.13a20.4,20.4,0,0,0-12.23-6.78,59,59,0,0,0-17.31-.37,41.63,41.63,0,0,0-19.95,8.84A76.53,76.53,0,0,0,495.27,132a66.08,66.08,0,0,0-8.66,13.92,132.65,132.65,0,0,0-5.06,13.8c-.76,2.53-1.42,5.08-2,7.66q2.69.39,5.37.72a198.14,198.14,0,0,0,23.84,1.58,101.45,101.45,0,0,1,3.78-13.79A114.41,114.41,0,0,1,522,135.78a44.72,44.72,0,0,1,8.27-9.6c.38-.37.76-.56,1.13-.94,4.33-2.82,6.4-2.44,9.22,1.7a39.34,39.34,0,0,1,3,5.64c1.13,2.26,2.07,4.52,5.08,5.83-4.7,3-7,7.15-9.41,11.11q-6.13,9.63-12.32,19.06c11.48-1.57,22.75-5.1,31.75-12.53C572.12,144.81,575.33,127.14,573.46,110.16Zm34.7,42.18c-1.13-.94-2.26-.75-3.58-.38a12.46,12.46,0,0,0-6.77,4.89c-6.21,8.09-12.42,16.37-18.63,24.46a84.09,84.09,0,0,1-11.29,13.36,9.58,9.58,0,0,1-2.63,2.07c-.75.57-1.13.38-1.32-.56a22,22,0,0,1-.37-3.2c-.19-7.15,1.31-14.11,3.38-20.89,1.7-6.39,4.33-12.23,6-18.62a64.73,64.73,0,0,1,2.45-7.91c2.07-5.26,4.14-10.53,6-15.8.94-2.26,1.88-4.7,2.82-7.15a14.27,14.27,0,0,0,.94-5.08,5.79,5.79,0,0,0-2.63-5.08,12,12,0,0,0-5.83-2.07c-.58-.07-1.15-.12-1.72-.16a66.63,66.63,0,0,1-.66,28.14c-6.27,24.17-29.28,34.41-52.08,37.27q-1.44,2.19-2.93,4.37c-3.2,4.51-6.4,9-10.35,12.79-.56.57-.94,1.51-1.69,1.13-.94-.19-.57-1.13-.75-1.88-.76-2.82-.19-5.65.18-8.47q.35-3.45.85-6.85a199.85,199.85,0,0,1-28.53-1.43l-.69-.08c0,.34-.07.67-.1,1,0,.5-.09,1-.12,1.51a32.64,32.64,0,0,0,1.12,12.79c2.26,7,6.21,12.61,13.55,15.06a27.83,27.83,0,0,0,13,1.12,23.2,23.2,0,0,0,12.42-5.45,38.22,38.22,0,0,0,6-6.4c3.77-5.27,7.34-10.35,11.1-15.62,1.7-2.44,3.39-5.08,5.08-7.52.19,0,.38,0,.38.19-.19,2.25-.19,4.7-.38,7.15a36.68,36.68,0,0,0,.94,13.54c2.07,7,6.4,11.67,13.36,13.55a20.94,20.94,0,0,0,20.89-5.46c3.2-3,5.64-6.77,8.28-10.35,7-9.21,14.11-18.25,20.69-27.84a35.44,35.44,0,0,0,3.77-6.4A3.45,3.45,0,0,0,608.16,152.34Z"/><path class="cls-4" d="M68.57,153.26l.93-4c-.23,1.36-.67,4.71-.89,6A99.74,99.74,0,0,0,68,165.4a51.26,51.26,0,0,0,.24,5.66l-1.64.84a57.9,57.9,0,0,1,.54-10.62C67.49,158.68,67.93,155.82,68.57,153.26Z"/><path class="cls-4" d="M76.33,189.76a23.39,23.39,0,0,0,10.87,5.41l-2.45,3.28a25.4,25.4,0,0,1-10.32-6.17Z"/><path class="cls-4" d="M185,175.94l.24,8a269.09,269.09,0,0,0-26.87,3.28l-.12,0L158,180A235.34,235.34,0,0,1,185,175.94Z"/><path class="cls-5" d="M206.55,175.23a131.77,131.77,0,0,1,26.38,3.28,53.74,53.74,0,0,0-1.28,9.15,120.85,120.85,0,0,0-25.82-3.92A72.15,72.15,0,0,1,206.55,175.23Z"/><path class="cls-5" d="M244.07,181.82a85.45,85.45,0,0,1,9.57,4.13l-6.22,7.57a85.25,85.25,0,0,0-9.87-4.05Z"/><path class="cls-5" d="M294.83,191.39a61.47,61.47,0,0,0-10.37,15,29.65,29.65,0,0,1-8.78-5.14h0a67.91,67.91,0,0,1,17.09-22.17l.27-.23A35.49,35.49,0,0,0,294.83,191.39Z"/><path class="cls-5" d="M306.12,169.76a112.56,112.56,0,0,1,31.58-11.92C327,164.31,316.32,170.15,306.12,169.76Z"/><path class="cls-6" d="M386.2,153.74c10,.34,20,1.19,29.92,2.46l-6.66,8.71c-3.92-.38-7.85-.67-11.79-.83a248.83,248.83,0,0,0-38.86.73l12.39-9.47.52-1.54C376.58,153.65,381.42,153.64,386.2,153.74Z"/><path class="cls-6" d="M446,161.18q5,1.06,10,2.09l-3.26,8.15c-8.43-1.44-16.86-2.94-25.3-4.22l2.78-8.91C435.52,159.15,440.77,160.13,446,161.18Z"/><path class="cls-6" d="M475.3,166.79a216.82,216.82,0,0,0,33.42,2.94,40,40,0,0,0-1.27,7A224.22,224.22,0,0,1,469,174Z"/><path class="cls-6" d="M573.45,110.18c1.87,17-1.33,34.67-14.74,45.91-9,7.42-20.27,11-31.76,12.52h0l-4.69,7.06c22.8-2.86,45.83-13.09,52.1-37.28a66.58,66.58,0,0,0,.66-28.13s-1.93-8-3.31-11.12Z"/></svg>