<?xml version="1.0" encoding="UTF-8"?>
<svg xmlns="http://www.w3.org/2000/svg" xmlns:xlink="http://www.w3.org/1999/xlink" viewBox="0 0 643 220">
  <defs>
    <style>
      .cls-1 {
        fill: url(#Degradado_sin_nombre_78);
      }

      .cls-2 {
        stroke: #003756;
        stroke-miterlimit: 10;
        stroke-width: 2.79px;
      }

      .cls-2, .cls-3 {
        fill: none;
      }

      .cls-4 {
        fill: #fff;
      }

      .cls-5 {
        fill: url(#Degradado_sin_nombre_49-2);
        filter: url(#drop-shadow-9);
      }

      .cls-5, .cls-6, .cls-7, .cls-8, .cls-9, .cls-10 {
        opacity: .49;
      }

      .cls-11 {
        fill: url(#Degradado_sin_nombre_30);
      }

      .cls-12 {
        fill: url(#Degradado_sin_nombre_49-5);
      }

      .cls-6 {
        fill: url(#Degradado_sin_nombre_16-2);
        filter: url(#drop-shadow-8);
      }

      .cls-13 {
        isolation: isolate;
      }

      .cls-14 {
        fill: #dafdf7;
      }

      .cls-15 {
        clip-path: url(#clippath-1);
      }

      .cls-7 {
        fill: url(#Degradado_sin_nombre_16);
        filter: url(#drop-shadow-5);
      }

      .cls-16 {
        fill: url(#Degradado_sin_nombre_22);
        filter: url(#drop-shadow-4);
      }

      .cls-8 {
        fill: url(#Degradado_sin_nombre_49);
        filter: url(#drop-shadow-6);
      }

      .cls-17 {
        clip-path: url(#clippath);
      }

      .cls-18 {
        fill: #b3b3b3;
        mix-blend-mode: hard-light;
        opacity: .25;
      }

      .cls-19 {
        fill: url(#Degradado_sin_nombre_27-2);
      }

      .cls-20 {
        fill: url(#Degradado_sin_nombre_30-2);
      }

      .cls-21 {
        fill: url(#Degradado_sin_nombre_22-2);
        filter: url(#drop-shadow-7);
      }

      .cls-9 {
        fill: url(#Degradado_sin_nombre_49-3);
        filter: url(#drop-shadow-10);
      }

      .cls-22 {
        fill: url(#Degradado_sin_nombre_49-4);
      }

      .cls-10 {
        fill: url(#Degradado_sin_nombre_27);
        filter: url(#drop-shadow-3);
      }
    </style>
    <clipPath id="clippath">
      <rect class="cls-3" x="390.32" y="43.9" width="78.13" height="170"/>
    </clipPath>
    <linearGradient id="Degradado_sin_nombre_30" data-name="Degradado sin nombre 30" x1="395.71" y1="134.76" x2="468.45" y2="134.76" gradientUnits="userSpaceOnUse">
      <stop offset=".11" stop-color="#0071bc"/>
      <stop offset="1" stop-color="#29abe2"/>
      <stop offset="1" stop-color="#29abe2"/>
    </linearGradient>
    <linearGradient id="Degradado_sin_nombre_27" data-name="Degradado sin nombre 27" x1="409.45" y1="134.76" x2="468.45" y2="134.76" gradientUnits="userSpaceOnUse">
      <stop offset="0" stop-color="#64c8f4"/>
      <stop offset="1" stop-color="#29abe2"/>
      <stop offset="1" stop-color="#29abe2"/>
    </linearGradient>
    <filter id="drop-shadow-3" filterUnits="userSpaceOnUse">
      <feOffset dx="0" dy="0"/>
      <feGaussianBlur result="blur" stdDeviation="2.17"/>
      <feFlood flood-color="#000" flood-opacity=".43"/>
      <feComposite in2="blur" operator="in"/>
      <feComposite in="SourceGraphic"/>
    </filter>
    <linearGradient id="Degradado_sin_nombre_22" data-name="Degradado sin nombre 22" x1="421.57" y1="134.76" x2="468.45" y2="134.76" gradientUnits="userSpaceOnUse">
      <stop offset="0" stop-color="#64c8f4"/>
      <stop offset="1" stop-color="#29abe2"/>
    </linearGradient>
    <filter id="drop-shadow-4" filterUnits="userSpaceOnUse">
      <feOffset dx="0" dy="0"/>
      <feGaussianBlur result="blur-2" stdDeviation="2.17"/>
      <feFlood flood-color="#000" flood-opacity=".43"/>
      <feComposite in2="blur-2" operator="in"/>
      <feComposite in="SourceGraphic"/>
    </filter>
    <linearGradient id="Degradado_sin_nombre_16" data-name="Degradado sin nombre 16" x1="431.7" y1="134.76" x2="468.45" y2="134.76" gradientUnits="userSpaceOnUse">
      <stop offset="0" stop-color="#64c8f4"/>
      <stop offset="1" stop-color="#5cd5ff"/>
    </linearGradient>
    <filter id="drop-shadow-5" filterUnits="userSpaceOnUse">
      <feOffset dx="0" dy="0"/>
      <feGaussianBlur result="blur-3" stdDeviation="2.17"/>
      <feFlood flood-color="#000" flood-opacity=".43"/>
      <feComposite in2="blur-3" operator="in"/>
      <feComposite in="SourceGraphic"/>
    </filter>
    <linearGradient id="Degradado_sin_nombre_49" data-name="Degradado sin nombre 49" x1="438.93" y1="134.76" x2="468.45" y2="134.76" gradientUnits="userSpaceOnUse">
      <stop offset="0" stop-color="#64c8f4"/>
      <stop offset=".96" stop-color="#0083bc"/>
    </linearGradient>
    <filter id="drop-shadow-6" filterUnits="userSpaceOnUse">
      <feOffset dx="0" dy="0"/>
      <feGaussianBlur result="blur-4" stdDeviation="2.17"/>
      <feFlood flood-color="#000" flood-opacity=".43"/>
      <feComposite in2="blur-4" operator="in"/>
      <feComposite in="SourceGraphic"/>
    </filter>
    <clipPath id="clippath-1">
      <rect class="cls-3" x="468.45" y="43.9" width="78.13" height="170"/>
    </clipPath>
    <linearGradient id="Degradado_sin_nombre_27-2" data-name="Degradado sin nombre 27" x1="468.45" y1="134.76" x2="541.11" y2="134.76" xlink:href="#Degradado_sin_nombre_27"/>
    <linearGradient id="Degradado_sin_nombre_22-2" data-name="Degradado sin nombre 22" x1="468.45" y1="134.76" x2="527.37" y2="134.76" xlink:href="#Degradado_sin_nombre_22"/>
    <filter id="drop-shadow-7" filterUnits="userSpaceOnUse">
      <feOffset dx="0" dy="0"/>
      <feGaussianBlur result="blur-5" stdDeviation="2.17"/>
      <feFlood flood-color="#000" flood-opacity=".43"/>
      <feComposite in2="blur-5" operator="in"/>
      <feComposite in="SourceGraphic"/>
    </filter>
    <linearGradient id="Degradado_sin_nombre_16-2" data-name="Degradado sin nombre 16" x1="468.45" y1="134.76" x2="515.25" y2="134.76" xlink:href="#Degradado_sin_nombre_16"/>
    <filter id="drop-shadow-8" filterUnits="userSpaceOnUse">
      <feOffset dx="0" dy="0"/>
      <feGaussianBlur result="blur-6" stdDeviation="2.17"/>
      <feFlood flood-color="#000" flood-opacity=".43"/>
      <feComposite in2="blur-6" operator="in"/>
      <feComposite in="SourceGraphic"/>
    </filter>
    <linearGradient id="Degradado_sin_nombre_49-2" data-name="Degradado sin nombre 49" x1="468.45" y1="134.76" x2="505.12" y2="134.76" xlink:href="#Degradado_sin_nombre_49"/>
    <filter id="drop-shadow-9" filterUnits="userSpaceOnUse">
      <feOffset dx="0" dy="0"/>
      <feGaussianBlur result="blur-7" stdDeviation="2.17"/>
      <feFlood flood-color="#000" flood-opacity=".43"/>
      <feComposite in2="blur-7" operator="in"/>
      <feComposite in="SourceGraphic"/>
    </filter>
    <linearGradient id="Degradado_sin_nombre_49-3" data-name="Degradado sin nombre 49" x1="468.45" y1="134.76" x2="497.89" y2="134.76" xlink:href="#Degradado_sin_nombre_49"/>
    <filter id="drop-shadow-10" filterUnits="userSpaceOnUse">
      <feOffset dx="0" dy="0"/>
      <feGaussianBlur result="blur-8" stdDeviation="2.17"/>
      <feFlood flood-color="#000" flood-opacity=".43"/>
      <feComposite in2="blur-8" operator="in"/>
      <feComposite in="SourceGraphic"/>
    </filter>
    <linearGradient id="Degradado_sin_nombre_78" data-name="Degradado sin nombre 78" x1="-2037.09" y1="981.51" x2="-2037.09" y2="938.87" gradientTransform="translate(-1907.61 793.05) rotate(135) scale(1 -1)" gradientUnits="userSpaceOnUse">
      <stop offset=".06" stop-color="#000"/>
      <stop offset=".24" stop-color="#0d0d0d"/>
      <stop offset=".69" stop-color="#282828"/>
      <stop offset=".96" stop-color="#333"/>
    </linearGradient>
    <linearGradient id="Degradado_sin_nombre_49-4" data-name="Degradado sin nombre 49" x1="402.21" y1="134.19" x2="534.22" y2="134.19" xlink:href="#Degradado_sin_nombre_49"/>
    <linearGradient id="Degradado_sin_nombre_30-2" data-name="Degradado sin nombre 30" x1="412.61" y1="134.19" x2="523.82" y2="134.19" xlink:href="#Degradado_sin_nombre_30"/>
    <linearGradient id="Degradado_sin_nombre_49-5" data-name="Degradado sin nombre 49" x1="419.96" y1="134.19" x2="516.47" y2="134.19" xlink:href="#Degradado_sin_nombre_49"/>
  </defs>
  <g class="cls-13">
    <g id="Capa_1" data-name="Capa 1">
      <g>
        <g>
          <path d="M93.95,115.58L144.88,14.54h42.62L100.2,203.43c-2.49,5.28-10.01,5.28-12.5,0L.4,14.54H43.43l50.52,101.04Z"/>
          <path d="M236.52,40.41c-2,3.36-4.72,6.08-8.17,8.17-3.45,2.09-7.26,3.13-11.44,3.13s-7.95-1-11.3-3c-3.45-2.09-6.17-4.86-8.17-8.31-2.09-3.63-3.13-7.49-3.13-11.57s1-7.99,3-11.44c2.18-3.54,4.95-6.31,8.31-8.31,3.36-2,7.13-3,11.3-3s7.99,1,11.44,3c3.36,2,6.08,4.77,8.17,8.31,2,3.45,3,7.26,3,11.44s-1,8.22-3,11.57Zm2.86,27.92V207.91h-43.44V68.46l43.44-.14Z"/>
          <path d="M246.33,207.77l51.2-72.44-47.8-66.72,47.8-.27,25.33,38.67,27.1-38.67,46.98,.14-50.38,67.41,53.11,71.49-51.88,.27-26.55-40.31-28.73,40.31-46.16,.14Z"/>
        </g>
        <g>
          <g>
            <g class="cls-17">
              <g>
                <path class="cls-11" d="M468.45,62.06V207.46h-.04c-40.15,0-72.7-32.55-72.7-72.7s32.55-72.7,72.7-72.7h.04Z"/>
                <path class="cls-10" d="M468.45,75.8v117.91c-31.76,.04-57.99-25.21-58.96-57.16-.99-32.55,24.59-59.73,57.13-60.72,.61-.02,1.22-.03,1.83-.03Z"/>
                <path class="cls-16" d="M468.45,87.92v93.68h-.04c-25.87,0-46.84-20.97-46.84-46.84s20.97-46.84,46.84-46.84h.04Z"/>
                <path class="cls-7" d="M468.45,98.05v73.43h-.04c-20.28,0-36.71-16.44-36.71-36.71s16.44-36.71,36.71-36.71h.04Z"/>
                <path class="cls-8" d="M468.45,105.28v58.96h-.04c-16.28,0-29.48-13.2-29.48-29.48s13.2-29.48,29.48-29.48h.04Z"/>
                <path class="cls-14" d="M468.45,119.86v30.38c-8.31-.1-15.01-6.86-15.01-15.19s6.7-15.09,15.01-15.19Z"/>
              </g>
            </g>
            <g class="cls-15">
              <g>
                <path class="cls-19" d="M541.11,134.76c0,40.14-32.53,72.68-72.67,72.7V62.06c40.13,.02,72.67,32.56,72.67,72.7Z"/>
                <path class="cls-21" d="M470.2,193.69c-.59,.02-1.18,.03-1.76,.03V75.8c31.73,0,57.92,25.23,58.89,57.16,.99,32.55-24.59,59.73-57.13,60.72Z"/>
                <path class="cls-6" d="M515.25,134.76c0,25.86-20.95,46.82-46.8,46.84V87.92c25.85,.02,46.8,20.98,46.8,46.84Z"/>
                <path class="cls-5" d="M505.12,134.76c0,20.27-16.42,36.69-36.68,36.71V98.05c20.26,.02,36.68,16.45,36.68,36.71Z"/>
                <path class="cls-9" d="M497.89,134.76c0,16.27-13.18,29.46-29.44,29.48v-58.96c16.26,.02,29.44,13.21,29.44,29.48Z"/>
                <path class="cls-14" d="M483.82,135.05c0,8.39-6.8,15.19-15.19,15.19h-.18v-30.38h.18c8.39,0,15.19,6.8,15.19,15.19Z"/>
              </g>
            </g>
          </g>
          <circle class="cls-2" cx="468.91" cy="134.95" r="72.55"/>
        </g>
        <path class="cls-1" d="M222.75,50.75c-3.93,.97-7.79,.97-11.6,0-3.8-.97-7.25-3-10.34-6.09s-4.96-6.38-5.99-10.24c-1.03-4-1.06-7.89-.1-11.69,1.03-3.87,3.03-7.28,5.99-10.24s6.35-4.93,10.15-5.89c-12.85,20.21-7.91,34.75,11.89,44.16Z"/>
        <g>
          <g>
            <path d="M391.8,134.19c0-42.36,34.04-76.41,76.41-76.41s76.4,34.05,76.4,76.41-34.04,76.4-76.4,76.4-76.41-34.04-76.41-76.4Z"/>
            <path class="cls-22" d="M402.21,134.19c0-36.6,29.41-66.01,66.01-66.01s66,29.41,66,66.01-29.41,66-66,66-66.01-29.4-66.01-66Z"/>
            <path class="cls-14" d="M406,134.19c0-34.49,27.72-62.21,62.21-62.21s62.2,27.72,62.2,62.21-27.72,62.2-62.2,62.2-62.21-27.71-62.21-62.2Z"/>
            <path class="cls-20" d="M412.61,134.19c0-30.83,24.77-55.61,55.61-55.61s55.6,24.78,55.6,55.61-24.77,55.6-55.6,55.6-55.61-24.77-55.61-55.6Z"/>
            <path class="cls-12" d="M419.96,134.19c0-26.75,21.5-48.26,48.26-48.26s48.25,21.5,48.25,48.26-21.5,48.25-48.25,48.25-48.26-21.5-48.26-48.25Z"/>
            <path class="cls-4" d="M434.16,133.85c0-18.82,15.12-33.94,33.94-33.94s33.94,15.12,33.94,33.94-15.12,33.94-33.94,33.94-33.94-15.12-33.94-33.94Z"/>
          </g>
          <g>
            <path d="M447.23,134.26c0-11.57,9.29-20.86,20.86-20.86s20.86,9.3,20.86,20.86-9.29,20.86-20.86,20.86-20.86-9.29-20.86-20.86Z"/>
            <path class="cls-18" d="M467.45,116.72c10.19,0,18.55,6.02,18.55,16.21s-8.6,17.08-18.79,17.08c1.32-.72,2.55-1.46,3.7-2.23,11.75-7.83,9.8-26.02-3.46-31.06,0,0,0,0,0,0Z"/>
          </g>
        </g>
        <path d="M615.39,73.9c7.78-4.49,16.85-6.82,27.22-7v37.58c-1.38-.17-3.46-.26-6.22-.26-12.27,0-21.99,3.33-29.16,9.98-7.17,6.65-10.76,15.51-10.76,26.57v67.13h-39.92V68.46h39.92v25.14c4.84-8.64,11.15-15.2,18.92-19.7Z"/>
      </g>
    </g>
  </g>
</svg>