<?xml version="1.0" encoding="utf-8"?>
<!-- Generator: Adobe Illustrator 26.0.0, SVG Export Plug-In . SVG Version: 6.00 Build 0)  -->
<svg version="1.1" id="Capa_1" xmlns="http://www.w3.org/2000/svg" xmlns:xlink="http://www.w3.org/1999/xlink" x="0px" y="0px"
	 viewBox="0 0 673.2 325.5" style="enable-background:new 0 0 673.2 325.5;" xml:space="preserve">
<style type="text/css">
	.st0{enable-background:new    ;}
	.st1{fill:none;stroke:#17222E;stroke-width:2;stroke-miterlimit:10;}
	.st2{fill:#17222E;}
	.st3{fill:#FBBE12;}
	.st4{fill:#E30613;}
	.st5{fill:#95C11F;}
</style>
<g>
	<g class="st0">
		<path class="st1" d="M388,262.9c-2.2,0-4.3-0.4-6.2-1.2c-1.9-0.8-3.4-1.8-4.4-3.1l0.6-0.6c1,1.1,2.3,2.1,4.1,2.9
			c1.8,0.8,3.8,1.2,5.9,1.2c2.2,0,4-0.3,5.4-0.9c1.4-0.6,2.4-1.4,3.1-2.4c0.7-1,1-2.2,1-3.4c0-1.4-0.3-2.6-1-3.5
			c-0.7-0.9-1.6-1.6-2.8-2.1c-1.2-0.5-2.4-0.9-3.8-1.3c-1.4-0.3-2.7-0.7-4.1-1c-1.4-0.3-2.6-0.8-3.8-1.4c-1.2-0.6-2.1-1.3-2.8-2.3
			s-1-2.3-1-3.8c0-1.3,0.4-2.6,1.1-3.7c0.7-1.2,1.8-2.1,3.3-2.8c1.5-0.7,3.4-1.1,5.8-1.1c1.6,0,3.2,0.3,4.8,0.8c1.6,0.5,2.9,1.2,4,2
			l-0.5,0.7c-1.2-0.9-2.6-1.6-4-2s-2.9-0.6-4.2-0.6c-2.1,0-3.8,0.3-5.2,0.9c-1.4,0.6-2.4,1.4-3.1,2.5c-0.7,1-1,2.2-1,3.4
			c0,1.5,0.3,2.6,1,3.5c0.7,0.9,1.6,1.6,2.8,2.1c1.2,0.5,2.4,0.9,3.8,1.3c1.4,0.3,2.7,0.7,4.1,1s2.6,0.8,3.8,1.4
			c1.2,0.6,2.1,1.3,2.8,2.3c0.7,1,1,2.2,1,3.8c0,1.3-0.4,2.6-1.1,3.7c-0.7,1.2-1.8,2.1-3.4,2.8C392.4,262.6,390.4,262.9,388,262.9z"
			/>
		<path class="st1" d="M414,262.9c-2.1,0-3.9-0.5-5.6-1.4s-2.9-2.3-3.9-4c-1-1.7-1.4-3.7-1.4-5.9c0-2.2,0.5-4.2,1.4-5.9
			c1-1.7,2.2-3,3.9-4s3.5-1.4,5.6-1.4s3.9,0.5,5.6,1.4c1.6,1,2.9,2.3,3.9,4c0.9,1.7,1.4,3.6,1.4,5.9c0,2.2-0.5,4.1-1.4,5.9
			c-0.9,1.7-2.2,3.1-3.9,4C418,262.5,416.1,262.9,414,262.9z M414,262.1c1.9,0,3.6-0.4,5.1-1.3c1.5-0.9,2.7-2.1,3.6-3.7
			c0.9-1.6,1.3-3.4,1.3-5.4c0-2.1-0.4-3.9-1.3-5.5c-0.9-1.6-2.1-2.8-3.6-3.7c-1.5-0.9-3.2-1.3-5.1-1.3s-3.6,0.4-5.1,1.3
			c-1.5,0.9-2.7,2.1-3.6,3.7c-0.9,1.6-1.3,3.4-1.3,5.5c0,2,0.4,3.9,1.3,5.4c0.9,1.6,2.1,2.8,3.6,3.7
			C410.4,261.7,412.1,262.1,414,262.1z"/>
		<path class="st1" d="M432.2,262.8v-32.1h0.9v32.1H432.2z"/>
		<path class="st1" d="M451.9,262.9c-1.9,0-3.5-0.4-4.9-1.1c-1.4-0.7-2.4-1.8-3.2-3.1c-0.7-1.4-1.1-3.1-1.1-5.1v-13.2h0.9v13.2
			c0,2.8,0.7,4.9,2.2,6.3c1.4,1.4,3.5,2.2,6.1,2.2c1.9,0,3.5-0.4,4.8-1.2c1.4-0.8,2.4-1.9,3.1-3.3c0.7-1.4,1.1-3.1,1.1-5v-12.1h0.9
			v22.3h-0.9v-6.3l0.1,0.1c-0.6,1.9-1.7,3.5-3.3,4.6C456.2,262.4,454.2,262.9,451.9,262.9z"/>
		<path class="st1" d="M467.7,241.3v-0.8h12.8v0.8H467.7z M477.5,262.9c-1.8,0-3.1-0.5-4-1.5c-0.9-1-1.4-2.3-1.4-4v-21.9h0.9v21.7
			c0,1.6,0.4,2.8,1.2,3.6s1.9,1.3,3.4,1.3c1.5,0,2.7-0.5,3.7-1.4l0.6,0.6c-0.5,0.5-1.2,1-2,1.2C479.1,262.8,478.3,262.9,477.5,262.9
			z"/>
		<path class="st1" d="M488.9,234.3c-0.3,0-0.5-0.1-0.8-0.3c-0.2-0.2-0.3-0.5-0.3-0.8c0-0.3,0.1-0.6,0.3-0.8
			c0.2-0.2,0.5-0.3,0.8-0.3c0.3,0,0.6,0.1,0.8,0.3c0.2,0.2,0.3,0.5,0.3,0.8c0,0.3-0.1,0.5-0.3,0.8
			C489.5,234.2,489.2,234.3,488.9,234.3z M488.5,262.8v-22.3h0.9v22.3H488.5z"/>
		<path class="st1" d="M507.5,262.9c-2.1,0-3.9-0.5-5.6-1.4c-1.6-1-2.9-2.3-3.9-4c-1-1.7-1.4-3.7-1.4-5.9c0-2.2,0.5-4.2,1.4-5.9
			c1-1.7,2.2-3,3.9-4c1.6-1,3.5-1.4,5.6-1.4c2.1,0,3.9,0.5,5.6,1.4s2.9,2.3,3.9,4c0.9,1.7,1.4,3.6,1.4,5.9c0,2.2-0.5,4.1-1.4,5.9
			c-0.9,1.7-2.2,3.1-3.9,4S509.6,262.9,507.5,262.9z M507.5,262.1c1.9,0,3.6-0.4,5.1-1.3c1.5-0.9,2.7-2.1,3.6-3.7
			c0.9-1.6,1.3-3.4,1.3-5.4c0-2.1-0.4-3.9-1.3-5.5c-0.9-1.6-2.1-2.8-3.6-3.7c-1.5-0.9-3.2-1.3-5.1-1.3c-1.9,0-3.6,0.4-5.1,1.3
			c-1.5,0.9-2.7,2.1-3.6,3.7c-0.9,1.6-1.3,3.4-1.3,5.5c0,2,0.4,3.9,1.3,5.4c0.9,1.6,2.1,2.8,3.6,3.7
			C503.9,261.7,505.6,262.1,507.5,262.1z"/>
		<path class="st1" d="M535.9,240.3c1.8,0,3.4,0.4,4.8,1.1c1.3,0.7,2.4,1.8,3.1,3.1c0.7,1.4,1.1,3.1,1.1,5.1v13.2H544v-13.2
			c0-2.8-0.7-4.9-2.1-6.3c-1.4-1.4-3.4-2.2-5.9-2.2c-2,0-3.6,0.4-5.1,1.2c-1.4,0.8-2.5,1.9-3.2,3.3s-1.1,3.1-1.1,5v12.1h-0.9v-22.3
			h0.9v6.4l-0.1-0.1c0.7-2,1.8-3.5,3.4-4.6C531.5,240.9,533.5,240.3,535.9,240.3z"/>
		<path class="st1" d="M559.7,262.9c-1.8,0-3.5-0.3-5.1-0.9c-1.6-0.6-2.8-1.3-3.6-2.2l0.5-0.7c0.8,0.8,1.9,1.5,3.4,2.1
			c1.4,0.6,3.1,0.9,4.8,0.9c2.7,0,4.6-0.5,5.7-1.4c1.2-0.9,1.7-2.1,1.7-3.6c0-1.1-0.3-1.9-0.8-2.5c-0.5-0.6-1.3-1.1-2.2-1.4
			c-0.9-0.3-1.9-0.6-3-0.8c-1.1-0.2-2.2-0.4-3.3-0.6s-2.1-0.6-3-1c-0.9-0.4-1.6-1-2.2-1.7c-0.5-0.7-0.8-1.7-0.8-3
			c0-1,0.3-1.9,0.8-2.8s1.4-1.6,2.6-2.1c1.2-0.5,2.7-0.8,4.5-0.8c1.4,0,2.8,0.2,4.1,0.6c1.4,0.4,2.4,1,3.3,1.7l-0.5,0.7
			c-0.9-0.7-1.9-1.3-3.2-1.6c-1.2-0.4-2.5-0.5-3.7-0.5c-2.5,0-4.2,0.5-5.3,1.4s-1.7,2.1-1.7,3.5c0,1.1,0.3,2,0.8,2.6
			c0.5,0.6,1.3,1.1,2.2,1.5c0.9,0.3,1.9,0.6,3,0.8c1.1,0.2,2.2,0.4,3.3,0.6c1.1,0.2,2.1,0.5,3,1c0.9,0.4,1.6,1,2.2,1.7
			c0.5,0.7,0.8,1.7,0.8,2.9c0,1.1-0.3,2.1-0.9,3c-0.6,0.9-1.5,1.6-2.7,2.1C563.1,262.7,561.6,262.9,559.7,262.9z"/>
	</g>
</g>
<line class="st1" x1="253.6" y1="224.4" x2="608.8" y2="224.4"/>
<path class="st2" d="M66.6,153c-5.3,1.5-10.5,3.6-14.9,7c-1.1,0.9-2.1,2-3,3.2c-1.9,2.6-1.5,6.2,1,8.3c3.2,3.2,7.2,4.1,11.5,3.8
	c0.9-0.1,1.8-0.5,2.5-1.1c0.9-0.9,1.9-1.6,3-2.2c-0.2-3.6,0-7.1,0.5-10.6c0.4-2.6,0.8-5.5,1.5-8l0.2-0.8
	C68,152.6,67.3,152.8,66.6,153z M198.6,39.7c-0.6,0-1.1-0.2-1.7-0.2c-6.6-0.6-12,1.5-15.8,7.3c-9.2,14.3-19.6,27.8-29.7,41.6
	c-8.7,11.8-17.3,23.7-26.2,35.6c-5.6,7.5-11.3,15.2-16.7,22.9c-0.6,1-1.8,1.7-3,1.7c-7.3,0.6-14.7,0.9-21.8,1.5
	c-4.9,0.4-9.8,1.2-14.6,2.2c-0.2,1.1-0.3,2.3-0.4,2.9c-0.4,3.3-0.6,6.7-0.6,10.1c0,1.9,0,3.8,0.2,5.6l1.2-0.5
	c7-3.1,14.3-5.5,21.8-7.1c1.7-0.5,3.5-0.8,5.3-0.9c-0.2,0.8-0.6,1.6-1.1,2.3c-6.3,8.4-12.7,16.7-19,25.1c3.1,2.7,6.8,4.6,10.9,5.4
	c8.1-10.8,16.1-21.6,23.9-32.5c0.6-1.1,1.7-1.8,3-1.9c6.6-0.4,13.4-0.4,19.9-0.4c5.6-0.1,11.2,0.1,16.7,0.6l5.8,0.6
	c1.5,0.4,1.5,0.6,1.5,2.1c0,1.1-0.2,2.1-0.2,3.2c-0.1,4.4-0.1,8.9,0,13.3c8.9-1.9,17.9-3.2,27-4c0-1.2,0-2.5,0.1-3.7
	c0-4.7,0.2-9.2,0.6-13.9c0.4-6.8,0.9-13.6,1.5-20.3c1.1-10.9,3-22,4.7-32.9c2.4-13.5,5.5-27.1,8.5-40.6c1.4-5.8,2.5-11.6,3.2-17.5
	C203.7,42.9,202.4,40.9,198.6,39.7z M173,80c-2.8,9.4-4.9,18.8-6.8,28.2c-1.9,10-4,19.8-5.5,29.9c-0.4,3.6-0.9,7.1-1.3,10.9
	c-0.2,0.4-0.2,0.7-0.2,1.1c-0.4,1.7-0.6,1.7-2.3,1.3c-8.5-1.8-17.1-2.7-25.8-2.8c-2.4-0.2-5.1-0.2-7.5-0.4c-0.6,0-1.1,0.2-1.3-0.4
	c-0.4-0.6,0.2-0.9,0.6-1.3c4.9-6.8,9.8-13.4,14.7-20.1c11.1-15.4,22.2-30.8,33.7-46.1c0.6-0.8,1.1-1.5,1.9-2.4
	C173.4,78.6,173.4,79.4,173,80z M237.7,236.7c-1.5-0.4-3-0.5-4.5-0.4c-1.9,0.2-3.8,1-5.6,1.3c-3.4,0.6-7,0.9-10.5,1.5
	c-3.4,0.4-6.8-0.4-9.6-2.3c-2.8-1.8-5.3-4.1-7.3-6.8c-4.9-5.8-7.9-12.6-10.2-19.8c-2.7-8.6-4.3-17.5-4.7-26.4
	c-9,0.6-17.9,1.7-26.8,3.3l0,0c0.1,1.8,0.3,3.5,0.6,5.3c1.3,8.7,3.2,17.3,6.6,25.4c3.6,8.5,8.3,16.2,15.2,22.4
	c6.8,6.3,15.7,9.9,25,10c4.3,0.2,8.5-0.6,12.6-1.1c5.7-0.8,11.3-2.4,16.6-4.5c1.5-0.5,2.9-1.3,4-2.4
	C241,240.3,240.6,237.9,237.7,236.7L237.7,236.7z M74.4,192.3c-2.7,3.5-5.3,7.1-7.9,10.6c-4.5,6.4-9.2,12.8-13.4,19.4
	c-0.4,0.8-0.8,1.3-1.1,2.1c-0.6,1.7-0.2,2.8,1.5,3.6c1,0.5,2.1,0.8,3.2,0.8c3.3,0,6.5-1.6,8.5-4.3c4.3-5.6,8.7-11.5,13-17.1l6.6-8.8
	C80.9,197.2,77.4,195.1,74.4,192.3z"/>
<path class="st2" d="M275.4,25.8c-4.1-1.5-8.6-1.5-12.8-0.2c-1.8,0.6-3.5,1.7-4.9,3c-1.2,1.4-2.4,2.9-3.4,4.5
	c-2.2,4-4.5,8.1-6.6,12.2c-3.2,6.6-6.2,13.2-8.8,20.1c-3,7.7-6.4,15.2-9,23.1c-4.5,12.8-8.1,26-11.7,38.9
	c-2.3,7.7-3.8,15.6-6.2,23.3c-2.4,7.9-4.2,16.1-5.4,24.3c8.9,0.2,17.7,1.3,26.4,3.3c1.2-6.6,2.9-13.2,5-19.6c6-20.1,12.4-40.1,19-60
	c4-11.8,8.3-23.7,13.2-35.6c3-7.2,6.2-14.3,8.5-22c0.8-2.3,1.5-4.7,1.9-7.2C281,30,279.4,27.3,275.4,25.8z M237.6,189.4
	c-0.7,0.7-1.4,1.4-2.1,2.1c-1.3,1.3-2.6,2.5-4.1,3.6c-0.2-0.9-0.2-1.9,0-2.8c0.1-1.5,0.2-3.1,0.3-4.7c-8.5-2.3-17.1-3.6-25.9-3.9
	c-0.1,5.4,0.9,10.7,3.2,15.6c0.9,2.4,2.5,4.4,4.5,5.8c5.6,3.9,11.7,4.3,18.1,2.3c4.3-1.6,8.1-4.3,10.9-7.9c1.7-2,3.3-4,5-6
	C244.3,191.9,241,190.6,237.6,189.4z M271.5,153.9c-1.1,0.2-2.1,0.5-3.1,1.1c-0.2,0.1-0.5,0.3-0.7,0.4c-1.4,0.9-2.7,2.1-3.8,3.4
	c-6.6,7.3-13,14.7-19.2,22.2l-0.6,0.8c3.3,1.2,6.5,2.6,9.6,4.1c2.9-3.6,5.9-7.1,8.8-10.7c0.6-0.7,1.2-1.5,1.9-2.3
	c3.1-3.8,6.1-7.8,9-11.8c0.8-1,1.4-2.2,1.7-3.4c0.5-1.6-0.4-3.3-2-3.7C272.5,153.8,272,153.8,271.5,153.9z"/>
<path class="st2" d="M368.2,164c-3.1,0.2-6.3,0.4-9.4,0.8c-5.1,4-10.3,8-15.4,12c-8.4,6.7-17.6,12.3-27.4,16.6
	c-4.3,2-8.9,3.5-13.5,4.3c-2.6,0.4-4.3-0.6-5.8-2.6c-0.7-1.2-1.3-2.4-1.8-3.7c-4.2,4.5-7.7,9.5-10.4,15c6.6,2.5,13.8,3,20.8,1.4
	c7.9-1.4,15.4-4.6,22-9.2c12.2-8.1,23.9-16.7,35.4-25.8c1.3-1,2.5-2,3.8-3c2.4-1.9,4.7-3.9,6.9-6C371.6,163.8,369.9,163.9,368.2,164
	z M347.6,115.4c-3-2.8-6.8-3.9-10.7-4.9c-5.1-1.3-10.4-1.6-15.6-0.9c-6.8,0.7-13.4,2.8-19.4,6c-6.9,3.7-13,8.6-18.2,14.5
	c-6.6,7.3-11.7,15.7-15.2,24.9c-0.9,2.3-1.6,4.6-2.3,6.9c-1.1,3.6-1.7,7.3-1.8,11c0,0.8-0.1,1.6-0.1,2.4c0,4.8,0.9,9.6,2.6,14.1
	c1.8,4.7,4.9,8.8,8.8,11.9c4.1-8.5,9.9-16.1,17.1-22.3l0.2-0.2c0.1-2.7,0.3-5.4,0.7-8.1c0.2-0.9,0.6-1.5,1.7-1.3
	c3.5,0.4,7.1,0.5,10.6,0.3c9.9-5.6,20.6-9.6,31.8-12c2.3-2.1,4.4-4.4,6.4-6.9c3.6-4.7,6.3-10.1,7.9-15.8c0.9-2.5,1.4-5.2,1.3-7.9
	C353.4,122.2,351.1,118.5,347.6,115.4L347.6,115.4z M325.7,135.8c-2.6,6.3-6.5,12-11.5,16.6c-2.9,2.9-6.7,4.8-10.7,5.4
	c-1.5,0.2-3,0.6-4.5,0.8c-1.3,0.2-1.5-0.2-1-1.3c1-2.7,2.3-5.4,3.8-7.9c3.4-6.1,7.6-11.7,12.6-16.6c2.9-2.7,6.1-5,9.6-6.8
	c0.4-0.2,0.9-0.4,1.3-0.4c0.6-0.4,1.1-0.2,1.3,0.8c0,0.8,0.2,1.7,0.4,2.4C326.8,131.2,326.4,133.5,325.7,135.8L325.7,135.8z"/>
<path class="st2" d="M467.6,114.5c-1.8-1.7-4-2.8-6.4-3.4c-5.4-1.6-11.2-1.4-16.5,0.6c-7.9,2.6-14.7,7.3-20.7,13.2
	c-6.8,6.7-13.3,13.8-19.4,21.3c-0.2,0.2-0.4,0.6-0.8,0.6c-0.4-0.2-0.2-0.4,0-0.8c2.6-5.8,4.7-12.2,7.1-18.2c1.3-2.8,2.2-5.8,2.6-8.8
	c0.2-1.7-0.4-3.4-1.7-4.5c-0.6-0.6-1.4-1.2-2.3-1.5c-6.2-3-13.4-3-19.6,0c-1.9,0.8-3.3,2.3-4.1,4.2c-1.5,3.2-3,6.6-4.3,9.8
	c-3.5,8.9-6.8,17.9-9.9,27c4.9-0.1,9.7-0.2,14.5-0.1c10,0.3,20,1.2,29.9,2.5c6.8-8.7,14.3-16.9,22.3-24.5c0.4-0.2,0.8-0.9,1.5-0.8
	c0.2,0.8-0.2,1.1-0.4,1.7c-0.6,2.1-1.4,4.2-2.3,6.2c-2.7,6.4-4.9,12.9-7.1,19.5c5.3,0.9,10.5,1.8,15.8,2.9c3.3,0.7,6.7,1.4,10,2.1
	c1.1-2.7,2.2-5.4,3.3-8.1c2.8-6.8,5.8-13.4,8.1-20.5c1.4-4.1,2.3-8.4,2.6-12.8C470.2,119,469.7,116.4,467.6,114.5z M478.4,175.2
	c-3.1-0.4-6.2-0.8-9.4-1.2c-3.8,4.3-7.5,8.6-11.4,13c-3.1,3.3-6.3,6.5-9.8,9.4c-0.6,0.4-0.9,0.9-1.9,0.8c-0.1-1.1-0.1-2.3,0.2-3.4
	c0.9-5.6,2.3-11.1,4.3-16.4c0.8-2,1.5-4,2.3-6c-8.5-1.4-17-3-25.5-4.3l-0.1,0.4c-2.7,8.2-4.1,16.8-4,25.4c0.3,5.2,2.7,10.1,6.8,13.4
	c5.8,4.7,14.7,4.7,20.7,0.6c2.7-2.1,5.2-4.5,7.3-7.1c4.3-5.4,9-10.7,13.7-16c2.2-2.5,4.4-5,6.5-7.5c0.3-0.3,0.5-0.6,0.8-0.9
	L478.4,175.2z M489.1,156.1c-1.7,0.1-3.3,0.6-4.7,1.5c-1,0.6-2,1.3-2.8,2.1c-1,0.9-1.8,1.9-2.6,2.9c-1.2,1.4-2.4,2.7-3.6,4.1
	c1.4,0.2,2.8,0.4,4.3,0.6c1.8,0.3,3.6,0.5,5.4,0.7c1.5-1.9,3-3.8,4.5-5.6c0.8-1,1.4-2,1.9-3.2C492.1,157.2,491.1,156.1,489.1,156.1
	L489.1,156.1z M397.7,164c-7.7-0.4-16-0.6-24.4-0.3c-1.7,0.1-3.3,0.1-5,0.2c-0.6,1.9-1.2,3.9-1.9,5.8c-0.8,2.6-1.6,5.2-2.4,7.8
	c-2.3,6.8-3.7,13.8-4.3,20.9c-0.4,5.1,1.9,8.3,6.6,9.4c5.3,1.1,11.7,0.6,16-5.6c2.6-3.9,5.5-7.9,8.3-11.7c6.4-8.6,12.6-17.2,19-25.7
	C405.5,164.5,401.6,164.2,397.7,164z"/>
<path class="st2" d="M573.5,110.2c-3.4-0.1-6.8,0.8-9.7,2.7c-1.6,1.1-3,2.6-4,4.3c-0.6,0.8-1.1,1.7-1.7,2.6
	c-0.8,1.1-0.9,1.3-1.9,0.2c-0.4-0.4-0.6-0.8-0.9-1.1c-3.2-3.6-7.5-6-12.2-6.8c-5.7-1-11.6-1.1-17.3-0.4c-7.3,1.1-14.2,4.2-20,8.8
	c-3.9,3.5-7.4,7.3-10.5,11.5c-3.5,4.3-6.4,8.9-8.7,13.9c-1.9,4.5-3.6,9.1-5.1,13.8c-0.8,2.5-1.4,5.1-2,7.7c1.8,0.3,3.6,0.5,5.4,0.7
	c7.9,1,15.9,1.5,23.8,1.6c0.9-4.7,2.2-9.3,3.8-13.8c2.5-7,5.7-13.7,9.5-20.1c2.3-3.6,5.1-6.8,8.3-9.6c0.4-0.4,0.8-0.6,1.1-0.9
	c4.3-2.8,6.4-2.4,9.2,1.7c1.2,1.8,2.2,3.7,3,5.6c1.1,2.3,2.1,4.5,5.1,5.8c-4.7,3-7,7.1-9.4,11.1c-4.1,6.4-8.2,12.8-12.3,19.1
	c11.5-1.6,22.8-5.1,31.8-12.5C572.1,144.8,575.3,127.1,573.5,110.2z M608.2,152.3c-1.1-0.9-2.3-0.8-3.6-0.4
	c-2.8,0.8-5.1,2.5-6.8,4.9c-6.2,8.1-12.4,16.4-18.6,24.5c-3.3,4.8-7.1,9.3-11.3,13.4c-0.7,0.8-1.6,1.5-2.6,2.1
	c-0.8,0.6-1.1,0.4-1.3-0.6c-0.2-1.1-0.3-2.1-0.4-3.2c-0.2-7.1,1.3-14.1,3.4-20.9c1.7-6.4,4.3-12.2,6-18.6c0.6-2.7,1.5-5.3,2.5-7.9
	c2.1-5.3,4.1-10.5,6-15.8c0.9-2.3,1.9-4.7,2.8-7.2c0.6-1.6,0.9-3.3,0.9-5.1c0.1-2-0.9-4-2.6-5.1c-1.7-1.2-3.7-1.9-5.8-2.1
	c-0.6-0.1-1.2-0.1-1.7-0.2c1.8,9.3,1.6,18.9-0.7,28.1c-6.3,24.2-29.3,34.4-52.1,37.3c-1,1.5-1.9,2.9-2.9,4.4
	c-3.2,4.5-6.4,9-10.4,12.8c-0.6,0.6-0.9,1.5-1.7,1.1c-0.9-0.2-0.6-1.1-0.8-1.9c-0.8-2.8-0.2-5.6,0.2-8.5c0.2-2.3,0.5-4.6,0.9-6.9
	c-9.5,0.2-19.1-0.3-28.5-1.4l-0.7-0.1c0,0.3-0.1,0.7-0.1,1c0,0.5-0.1,1-0.1,1.5c-0.5,4.3-0.1,8.6,1.1,12.8c2.3,7,6.2,12.6,13.5,15.1
	c4.2,1.4,8.6,1.8,13,1.1c4.6-0.5,8.9-2.4,12.4-5.4c2.2-1.9,4.3-4,6-6.4c3.8-5.3,7.3-10.4,11.1-15.6c1.7-2.4,3.4-5.1,5.1-7.5
	c0.2,0,0.4,0,0.4,0.2c-0.2,2.2-0.2,4.7-0.4,7.1c-0.5,4.5-0.2,9.1,0.9,13.5c2.1,7,6.4,11.7,13.4,13.6c7.4,2.2,15.5,0.1,20.9-5.5
	c3.2-3,5.6-6.8,8.3-10.4c7-9.2,14.1-18.2,20.7-27.8c1.5-2,2.7-4.1,3.8-6.4C609,154.9,608.9,153.4,608.2,152.3L608.2,152.3z"/>
<path class="st3" d="M68.6,153.3l0.9-4c-0.2,1.4-0.7,4.7-0.9,6c-0.4,3.4-0.6,6.8-0.6,10.1c0,1.9,0.1,3.8,0.2,5.7l-1.6,0.8
	c-0.1-3.5,0-7.1,0.5-10.6C67.5,158.7,67.9,155.8,68.6,153.3z"/>
<path class="st3" d="M76.3,189.8c3.1,2.7,6.8,4.6,10.9,5.4l-2.4,3.3c-3.9-1.2-7.4-3.3-10.3-6.2L76.3,189.8z"/>
<path class="st3" d="M185,175.9l0.2,8c-9,0.6-18,1.7-26.9,3.3h-0.1L158,180C166.9,178.1,175.9,176.8,185,175.9z"/>
<path class="st4" d="M206.6,175.2c8.9,0.2,17.7,1.3,26.4,3.3c-0.7,3-1.1,6.1-1.3,9.1c-8.4-2.2-17.1-3.5-25.8-3.9
	C205.9,180.9,206.1,178,206.6,175.2z"/>
<path class="st4" d="M244.1,181.8c3.3,1.2,6.5,2.6,9.6,4.1l-6.2,7.6c-3.2-1.6-6.5-2.9-9.9-4.1L244.1,181.8z"/>
<path class="st4" d="M294.8,191.4c-4.2,4.5-7.7,9.5-10.4,15c-3.2-1.2-6.2-2.9-8.8-5.1l0,0c4.1-8.5,9.9-16,17.1-22.2l0.3-0.2
	C292.9,183.1,293.5,187.4,294.8,191.4z"/>
<path class="st4" d="M306.1,169.8c9.9-5.5,20.5-9.6,31.6-11.9C327,164.3,316.3,170.1,306.1,169.8z"/>
<path class="st5" d="M386.2,153.7c10,0.3,20,1.2,29.9,2.5l-6.7,8.7c-3.9-0.4-7.9-0.7-11.8-0.8c-13-0.8-25.9-0.5-38.9,0.7l12.4-9.5
	l0.5-1.5C376.6,153.6,381.4,153.6,386.2,153.7z"/>
<path class="st5" d="M446,161.2c3.3,0.7,6.7,1.4,10,2.1l-3.3,8.1c-8.4-1.4-16.9-2.9-25.3-4.2l2.8-8.9
	C435.5,159.1,440.8,160.1,446,161.2z"/>
<path class="st5" d="M475.3,166.8c11,1.8,22.2,2.8,33.4,2.9c-0.6,2.3-1.1,4.6-1.3,7c-12.9,0.2-25.7-0.7-38.4-2.7L475.3,166.8z"/>
<path class="st5" d="M573.5,110.2c1.9,17-1.3,34.7-14.7,45.9c-9,7.4-20.3,11-31.8,12.5l0,0l-4.7,7.1c22.8-2.9,45.8-13.1,52.1-37.3
	c2.2-9.2,2.4-18.8,0.7-28.1c0,0-1.9-8-3.3-11.1L573.5,110.2z"/>
</svg>
