<?xml version="1.0" encoding="utf-8"?>
<!-- Generator: Adobe Illustrator 26.0.0, SVG Export Plug-In . SVG Version: 6.00 Build 0)  -->
<svg version="1.1" id="Capa_1" xmlns="http://www.w3.org/2000/svg" xmlns:xlink="http://www.w3.org/1999/xlink" x="0px" y="0px"
	 viewBox="0 0 643 220" style="enable-background:new 0 0 643 220;" xml:space="preserve">
<style type="text/css">
	.st0{clip-path:url(#SVGID_00000050647661626352164430000009275876730825447591_);}
	.st1{fill:url(#SVGID_00000133490269762343866150000005109254527804098176_);}
	.st2{opacity:0.49;fill:url(#SVGID_00000170237632850902849050000001471394434183920303_);enable-background:new    ;}
	.st3{fill:url(#SVGID_00000012444914117640995370000000456678270238576290_);}
	.st4{opacity:0.49;fill:url(#SVGID_00000083769533730458810710000005237451498178224820_);enable-background:new    ;}
	.st5{opacity:0.49;fill:url(#SVGID_00000075160363051893530160000002502103120389003938_);enable-background:new    ;}
	.st6{fill:#DAFDF7;}
	.st7{clip-path:url(#SVGID_00000137124621535849129920000012869764641434461872_);}
	.st8{fill:url(#SVGID_00000031171998816639041020000004119455076126930316_);}
	.st9{fill:url(#SVGID_00000161628957346485828440000017288836693684308891_);}
	.st10{opacity:0.49;fill:url(#SVGID_00000083786045259084173160000004236451889387690923_);enable-background:new    ;}
	.st11{opacity:0.49;fill:url(#SVGID_00000156554752333502168690000016189358644492170885_);enable-background:new    ;}
	.st12{opacity:0.49;fill:url(#SVGID_00000169548895863100728200000012076663962477548694_);enable-background:new    ;}
	.st13{fill:none;stroke:#003756;stroke-width:2.79;stroke-miterlimit:10;}
	.st14{fill:url(#SVGID_00000011715781503195950800000015533024793600304056_);}
	.st15{fill:url(#SVGID_00000014607557268769255930000016969910579237151160_);}
	.st16{fill:url(#SVGID_00000095326062043937752700000000054441638361522082_);}
	.st17{fill:url(#SVGID_00000071545085140911113240000002991257945519256477_);}
	.st18{fill:#FFFFFF;}
	.st19{opacity:0.25;fill:#B3B3B3;enable-background:new    ;}
</style>
<g>
	<g id="Capa_1_00000083784025771033085390000001304459625043403143_">
		<g>
			<g>
				<path d="M108.2,115.2l47.7-94.7h39.9l-81.8,177.1c-2.3,4.9-9.4,4.9-11.7,0L20.5,20.5h40.3L108.2,115.2z"/>
				<path d="M241.8,44.8c-1.9,3.1-4.4,5.7-7.7,7.7c-3.2,2-6.8,2.9-10.7,2.9c-3.9,0-7.5-0.9-10.6-2.8c-3.2-2-5.8-4.6-7.7-7.8
					c-2-3.4-2.9-7-2.9-10.8s0.9-7.5,2.8-10.7c2-3.3,4.6-5.9,7.8-7.8s6.7-2.8,10.6-2.8s7.5,0.9,10.7,2.8c3.1,1.9,5.7,4.5,7.7,7.8
					c1.9,3.2,2.8,6.8,2.8,10.7S243.7,41.6,241.8,44.8L241.8,44.8z M244.5,70.9v130.8h-40.7V71.1L244.5,70.9L244.5,70.9z"/>
				<path d="M251,201.6l48-67.9l-44.8-62.5l44.8-0.3l23.7,36.2l25.4-36.2l44,0.1L345,134.3l49.8,67l-48.6,0.3l-24.9-37.8l-26.9,37.8
					L251,201.6L251,201.6z"/>
			</g>
			<g>
				<g>
					<g>
						<defs>
							<rect id="SVGID_1_" x="386" y="48" width="73.2" height="159.3"/>
						</defs>
						<clipPath id="SVGID_00000073722585529685523050000001359727409527399101_">
							<use xlink:href="#SVGID_1_"  style="overflow:visible;"/>
						</clipPath>
						<g style="clip-path:url(#SVGID_00000073722585529685523050000001359727409527399101_);">
							<g>
								
									<linearGradient id="SVGID_00000175297590720491891180000009922228504623816328_" gradientUnits="userSpaceOnUse" x1="391.061" y1="86.6818" x2="459.2439" y2="86.6818" gradientTransform="matrix(1 0 0 -1 0 219.89)">
									<stop  offset="0.11" style="stop-color:#0071BC"/>
									<stop  offset="1" style="stop-color:#29ABE2"/>
									<stop  offset="1" style="stop-color:#29ABE2"/>
								</linearGradient>
								<path style="fill:url(#SVGID_00000175297590720491891180000009922228504623816328_);" d="M459.2,65.1v136.3h0
									c-37.6,0-68.1-30.5-68.1-68.1S421.6,65.1,459.2,65.1L459.2,65.1L459.2,65.1z"/>
								
									<linearGradient id="SVGID_00000045588519050124899750000012908004365061068945_" gradientUnits="userSpaceOnUse" x1="403.9517" y1="86.6865" x2="459.2438" y2="86.6865" gradientTransform="matrix(1 0 0 -1 0 219.89)">
									<stop  offset="0" style="stop-color:#64C8F4"/>
									<stop  offset="1" style="stop-color:#29ABE2"/>
									<stop  offset="1" style="stop-color:#29ABE2"/>
								</linearGradient>
								
									<path style="opacity:0.49;fill:url(#SVGID_00000045588519050124899750000012908004365061068945_);enable-background:new    ;" d="
									M459.2,77.9v110.5c-29.8,0-54.4-23.6-55.3-53.6c-0.9-30.5,23-56,53.6-56.9C458.1,78,458.7,77.9,459.2,77.9z"/>
								
									<linearGradient id="SVGID_00000044158304644437434950000011964192782322343581_" gradientUnits="userSpaceOnUse" x1="415.3009" y1="86.6818" x2="459.2438" y2="86.6818" gradientTransform="matrix(1 0 0 -1 0 219.89)">
									<stop  offset="0" style="stop-color:#64C8F4"/>
									<stop  offset="1" style="stop-color:#29ABE2"/>
								</linearGradient>
								<path style="fill:url(#SVGID_00000044158304644437434950000011964192782322343581_);" d="M459.2,89.3v87.8h0
									c-24.2,0-43.9-19.7-43.9-43.9S435,89.3,459.2,89.3L459.2,89.3L459.2,89.3z"/>
								
									<linearGradient id="SVGID_00000000927898922150134290000003452471677307851680_" gradientUnits="userSpaceOnUse" x1="424.7963" y1="86.6772" x2="459.2438" y2="86.6772" gradientTransform="matrix(1 0 0 -1 0 219.89)">
									<stop  offset="0" style="stop-color:#64C8F4"/>
									<stop  offset="1" style="stop-color:#5CD5FF"/>
								</linearGradient>
								
									<path style="opacity:0.49;fill:url(#SVGID_00000000927898922150134290000003452471677307851680_);enable-background:new    ;" d="
									M459.2,98.8v68.8h0c-19,0-34.4-15.4-34.4-34.4S440.2,98.8,459.2,98.8L459.2,98.8L459.2,98.8z"/>
								
									<linearGradient id="SVGID_00000123414760921758675150000003500280039683317153_" gradientUnits="userSpaceOnUse" x1="431.5733" y1="86.6819" x2="459.2438" y2="86.6819" gradientTransform="matrix(1 0 0 -1 0 219.89)">
									<stop  offset="0" style="stop-color:#64C8F4"/>
									<stop  offset="0.96" style="stop-color:#0083BC"/>
								</linearGradient>
								
									<path style="opacity:0.49;fill:url(#SVGID_00000123414760921758675150000003500280039683317153_);enable-background:new    ;" d="
									M459.2,105.6v55.3h0c-15.3,0-27.6-12.4-27.6-27.6S443.9,105.6,459.2,105.6L459.2,105.6z"/>
								<path class="st6" d="M459.2,119.2v28.5c-7.8-0.1-14.1-6.4-14.1-14.2S451.5,119.3,459.2,119.2z"/>
							</g>
						</g>
					</g>
					<g>
						<defs>
							<rect id="SVGID_00000183954656218025881160000003755356981518251166_" x="459.2" y="48" width="73.2" height="159.3"/>
						</defs>
						<clipPath id="SVGID_00000153700441357260869790000016954930243637127820_">
							<use xlink:href="#SVGID_00000183954656218025881160000003755356981518251166_"  style="overflow:visible;"/>
						</clipPath>
						<g style="clip-path:url(#SVGID_00000153700441357260869790000016954930243637127820_);">
							<g>
								
									<linearGradient id="SVGID_00000106119803106736424920000013826286497928803457_" gradientUnits="userSpaceOnUse" x1="459.2345" y1="86.6819" x2="527.3516" y2="86.6819" gradientTransform="matrix(1 0 0 -1 0 219.89)">
									<stop  offset="0" style="stop-color:#64C8F4"/>
									<stop  offset="1" style="stop-color:#29ABE2"/>
									<stop  offset="1" style="stop-color:#29ABE2"/>
								</linearGradient>
								<path style="fill:url(#SVGID_00000106119803106736424920000013826286497928803457_);" d="M527.4,133.2
									c0,37.6-30.5,68.1-68.1,68.1V65.1C496.9,65.1,527.4,95.6,527.4,133.2z"/>
								
									<linearGradient id="SVGID_00000124864583874505812070000014833717935941227193_" gradientUnits="userSpaceOnUse" x1="459.2345" y1="86.6818" x2="514.4611" y2="86.6818" gradientTransform="matrix(1 0 0 -1 0 219.89)">
									<stop  offset="0" style="stop-color:#64C8F4"/>
									<stop  offset="1" style="stop-color:#29ABE2"/>
								</linearGradient>
								<path style="fill:url(#SVGID_00000124864583874505812070000014833717935941227193_);" d="M460.9,188.4c-0.6,0-1.1,0-1.6,0
									V77.9c29.7,0,54.3,23.6,55.2,53.6C515.4,162,491.4,187.5,460.9,188.4L460.9,188.4z"/>
								
									<linearGradient id="SVGID_00000172402343307785945870000001665071605524790711_" gradientUnits="userSpaceOnUse" x1="459.2438" y1="86.6819" x2="503.1118" y2="86.6819" gradientTransform="matrix(1 0 0 -1 0 219.89)">
									<stop  offset="0" style="stop-color:#64C8F4"/>
									<stop  offset="1" style="stop-color:#5CD5FF"/>
								</linearGradient>
								
									<path style="opacity:0.49;fill:url(#SVGID_00000172402343307785945870000001665071605524790711_);enable-background:new    ;" d="
									M503.1,133.2c0,24.2-19.6,43.9-43.9,43.9V89.3C483.5,89.3,503.1,109,503.1,133.2z"/>
								
									<linearGradient id="SVGID_00000121261264163319321790000015231047810913222318_" gradientUnits="userSpaceOnUse" x1="459.2345" y1="86.6818" x2="493.6165" y2="86.6818" gradientTransform="matrix(1 0 0 -1 0 219.89)">
									<stop  offset="0" style="stop-color:#64C8F4"/>
									<stop  offset="0.96" style="stop-color:#0083BC"/>
								</linearGradient>
								
									<path style="opacity:0.49;fill:url(#SVGID_00000121261264163319321790000015231047810913222318_);enable-background:new    ;" d="
									M493.6,133.2c0,19-15.4,34.4-34.4,34.4V98.8C478.2,98.8,493.6,114.2,493.6,133.2L493.6,133.2z"/>
								
									<linearGradient id="SVGID_00000083779175288530193790000013862689052546542486_" gradientUnits="userSpaceOnUse" x1="459.2438" y1="86.6819" x2="486.8394" y2="86.6819" gradientTransform="matrix(1 0 0 -1 0 219.89)">
									<stop  offset="0" style="stop-color:#64C8F4"/>
									<stop  offset="0.96" style="stop-color:#0083BC"/>
								</linearGradient>
								
									<path style="opacity:0.49;fill:url(#SVGID_00000083779175288530193790000013862689052546542486_);enable-background:new    ;" d="
									M486.8,133.2c0,15.3-12.4,27.6-27.6,27.6v-55.3C474.5,105.6,486.8,118,486.8,133.2z"/>
								<path class="st6" d="M473.7,133.5c0,7.9-6.4,14.2-14.2,14.2h-0.2v-28.5h0.2C467.3,119.2,473.7,125.6,473.7,133.5z"/>
							</g>
						</g>
					</g>
				</g>
				<circle class="st13" cx="459.7" cy="133.4" r="68"/>
			</g>
			
				<linearGradient id="SVGID_00000150099662263421418210000012253106716525858199_" gradientUnits="userSpaceOnUse" x1="-1777.5854" y1="-660.5622" x2="-1777.5854" y2="-620.5883" gradientTransform="matrix(-0.7071 0.7071 -0.7071 -0.7071 -1491.2435 840.4753)">
				<stop  offset="6.000000e-02" style="stop-color:#000000"/>
				<stop  offset="0.24" style="stop-color:#0D0D0D"/>
				<stop  offset="0.69" style="stop-color:#282828"/>
				<stop  offset="0.96" style="stop-color:#333333"/>
			</linearGradient>
			<path style="fill:url(#SVGID_00000150099662263421418210000012253106716525858199_);" d="M228.9,54.5c-3.7,0.9-7.3,0.9-10.9,0
				c-3.6-0.9-6.8-2.8-9.7-5.7c-2.9-2.9-4.6-6-5.6-9.6c-1-3.7-1-7.4-0.1-11c1-3.6,2.8-6.8,5.6-9.6s6-4.6,9.5-5.5
				C205.7,32,210.4,45.7,228.9,54.5L228.9,54.5z"/>
			<g>
				<g>
					<path d="M387.4,132.7c0-39.7,31.9-71.6,71.6-71.6s71.6,31.9,71.6,71.6s-31.9,71.6-71.6,71.6S387.4,172.4,387.4,132.7z"/>
					
						<linearGradient id="SVGID_00000060708672177176080540000004443433304527814808_" gradientUnits="userSpaceOnUse" x1="397.1538" y1="87.2208" x2="520.8933" y2="87.2208" gradientTransform="matrix(1 0 0 -1 0 219.89)">
						<stop  offset="0" style="stop-color:#64C8F4"/>
						<stop  offset="0.96" style="stop-color:#0083BC"/>
					</linearGradient>
					<path style="fill:url(#SVGID_00000060708672177176080540000004443433304527814808_);" d="M397.2,132.7
						c0-34.3,27.6-61.9,61.9-61.9s61.9,27.6,61.9,61.9s-27.6,61.9-61.9,61.9S397.2,167,397.2,132.7L397.2,132.7z"/>
					<path class="st6" d="M400.7,132.7c0-32.3,26-58.3,58.3-58.3s58.3,26,58.3,58.3S491.3,191,459,191S400.7,165,400.7,132.7
						L400.7,132.7z"/>
					
						<linearGradient id="SVGID_00000129165588197130419020000001652112347604428439_" gradientUnits="userSpaceOnUse" x1="406.9022" y1="87.2208" x2="511.1448" y2="87.2208" gradientTransform="matrix(1 0 0 -1 0 219.89)">
						<stop  offset="0.11" style="stop-color:#0071BC"/>
						<stop  offset="1" style="stop-color:#29ABE2"/>
						<stop  offset="1" style="stop-color:#29ABE2"/>
					</linearGradient>
					<path style="fill:url(#SVGID_00000129165588197130419020000001652112347604428439_);" d="M406.9,132.7
						c0-28.9,23.2-52.1,52.1-52.1c28.9,0,52.1,23.2,52.1,52.1s-23.2,52.1-52.1,52.1S406.9,161.6,406.9,132.7L406.9,132.7z"/>
					
						<linearGradient id="SVGID_00000173882884508420746310000015535917268543202747_" gradientUnits="userSpaceOnUse" x1="413.7917" y1="87.2208" x2="504.2553" y2="87.2208" gradientTransform="matrix(1 0 0 -1 0 219.89)">
						<stop  offset="0" style="stop-color:#64C8F4"/>
						<stop  offset="0.96" style="stop-color:#0083BC"/>
					</linearGradient>
					<path style="fill:url(#SVGID_00000173882884508420746310000015535917268543202747_);" d="M413.8,132.7
						c0-25.1,20.2-45.2,45.2-45.2c25.1,0,45.2,20.2,45.2,45.2s-20.2,45.2-45.2,45.2S413.8,157.7,413.8,132.7L413.8,132.7z"/>
					<path class="st18" d="M427.1,132.4c0-17.6,14.2-31.8,31.8-31.8s31.8,14.2,31.8,31.8s-14.2,31.8-31.8,31.8
						S427.1,150,427.1,132.4z"/>
				</g>
				<g>
					<path d="M439.4,132.7c0-10.8,8.7-19.6,19.6-19.6c10.8,0,19.6,8.7,19.6,19.6s-8.7,19.6-19.6,19.6
						C448.1,152.3,439.4,143.6,439.4,132.7L439.4,132.7z"/>
					<path class="st19" d="M458.3,116.3c9.6,0,17.4,5.6,17.4,15.2s-8.1,16-17.6,16c1.2-0.7,2.4-1.4,3.5-2.1
						C472.6,138.1,470.7,121,458.3,116.3L458.3,116.3z"/>
				</g>
			</g>
			<path d="M597,76.2c7.3-4.2,15.8-6.4,25.5-6.6v35.2c-1.3-0.2-3.2-0.2-5.8-0.2c-11.5,0-20.6,3.1-27.3,9.4
				c-6.7,6.2-10.1,14.5-10.1,24.9v62.9h-37.4V71.1h37.4v23.6C583.8,86.5,589.7,80.4,597,76.2z"/>
		</g>
	</g>
</g>
</svg>
