<svg id="eJwg7p3S91b1" xmlns="http://www.w3.org/2000/svg" xmlns:xlink="http://www.w3.org/1999/xlink" viewBox="0 0 401.14 133.07" shape-rendering="geometricPrecision" text-rendering="geometricPrecision"><style><![CDATA[#eJwg7p3S91b8_tr {animation: eJwg7p3S91b8_tr__tr 6000ms linear infinite normal forwards}@keyframes eJwg7p3S91b8_tr__tr { 0% {transform: translate(156.509999px,43.139999px) rotate(0deg)} 100% {transform: translate(156.509999px,43.139999px) rotate(360.466963deg)}}]]></style><path d="M40.82,50.43h-7v22.11h-14.21v-58.64h21.54C54,13.9,64.09,18.54,64.09,32c0,13.54-11.01,18.43-23.27,18.43ZM40,25.33h-6.22v13.83h6c5.3,0,10.19-1.57,10.19-7.12s-4.97-6.71-9.97-6.71Z" fill="#fff"/><path d="M104,72.54L91.34,49.27h-4.81v23.27h-13.91v-58.64h22.38c11.26,0,22.45,4.31,22.45,17.73c0,7.86-4.64,13.5-12.18,15.82l15.32,25.09ZM94,25.33h-7.55v13.67h6.71c4.55,0,10.27-1.16,10.27-7.13c0-5.46-5.22-6.54-9.43-6.54Z" fill="#fff"/><path d="M219.87,72.54h-21.87v-58.64h21.21c16.64,0,33.54,7,33.54,29.16c0,20.62-16.75,29.48-32.88,29.48Zm-1-46.55h-7v34.29h6.71c10.1,0,19.46-4.14,19.46-17.22s-9.39-17.06-19.16-17.06Z" fill="#fff"/><path d="M262.1,72.54v-58.64h39.43v12h-25.76v11h24.35v11.37h-24.35v12.18h27.23v12.09Z" fill="#fff"/><path d="M343.76,72.54L331.09,49.27h-4.8v23.27h-13.91v-58.64h22.36c11.26,0,22.44,4.31,22.44,17.73c0,7.86-4.63,13.5-12.17,15.82l15.32,25.09Zm-10-47.21h-7.53v13.67h6.71c4.55,0,10.27-1.16,10.27-7.13-.02-5.46-5.21-6.54-9.47-6.54Z" fill="#fff"/><path d="M367.28,72.54v-58.64h14.25v58.64Z" fill="#fff"/><g id="eJwg7p3S91b8_tr" transform="translate(156.509999,43.139999) rotate(0)"><g transform="translate(-156.509998,-43.139998)"><circle r="6.38" transform="translate(156.72 67.57)" fill="#95c11f" stroke="#95c11f" stroke-width="2" stroke-miterlimit="10"/><circle r="6.38" transform="translate(139.43 60.4)" fill="#95c11f" stroke="#95c11f" stroke-width="2" stroke-miterlimit="10"/><circle r="6.38" transform="translate(132.08 43.07)" fill="#95c11f" stroke="#95c11f" stroke-width="2" stroke-miterlimit="10"/><circle r="6.38" transform="translate(139.18 25.79)" fill="#95c11f" stroke="#95c11f" stroke-width="2" stroke-miterlimit="10"/><circle r="6.38" transform="translate(156.72 18.71)" fill="#e30613" stroke="#e30613" stroke-width="2" stroke-miterlimit="10"/><circle r="6.38" transform="translate(173.98 25.85)" fill="#e30613" stroke="#e30613" stroke-width="2" stroke-miterlimit="10"/><circle r="6.38" transform="translate(180.94 43.07)" fill="#fcbf0a" stroke="#fcbf0a" stroke-width="2" stroke-miterlimit="10"/><circle r="6.38" transform="translate(173.73 60.35)" fill="#fcbf0a" stroke="#fcbf0a" stroke-width="2" stroke-miterlimit="10"/></g></g><path d="M26,113.48v-23.07h9.27c4.64,0,7.23,3.18,7.23,7s-2.63,7-7.23,7h-6.4v9.17ZM39.51,97.36c.025958-1.206641-.458747-2.368157-1.334714-3.198421s-2.061765-1.252095-3.265286-1.161579h-6.06v8.78h6.06c1.213426.088578,2.407394-.342239,3.284691-1.185208s1.355406-2.018799,1.315309-3.234792Z" fill="#fff"/><path d="M46.18,113.48v-16.71h2.6v2.66c1.292212-1.803135,3.343472-2.90993,5.56-3v2.66c-.331887-.040733-.665675-.064098-1-.07-1.84661.151293-3.524368,1.133665-4.56,2.67v11.83Z" fill="#fff"/><path d="M56.62,105.11c0-4.85,3.19-8.75,8.27-8.75s8.27,3.9,8.27,8.75-3.18,8.78-8.27,8.78-8.27-3.89-8.27-8.78Zm13.81,0c0-3.39-2-6.44-5.54-6.44s-5.53,3-5.53,6.44s2,6.47,5.53,6.47s5.54-3.05,5.54-6.47Z" fill="#fff"/><path d="M76,111.26l1.31-1.86c1.428575,1.515151,3.417575,2.375846,5.5,2.38c2.56,0,4-1.21,4-2.87c0-4-10.34-1.55-10.34-7.75c0-2.62,2.21-4.8,6.19-4.8c2.309924-.088268,4.552443.788452,6.19,2.42l-1.21,1.8c-1.275285-1.404388-3.104141-2.176165-5-2.11-2.28,0-3.7,1.14-3.7,2.63c0,3.63,10.34,1.24,10.34,7.74c0,2.81-2.25,5-6.54,5-2.509594.126576-4.956384-.810029-6.74-2.58Z" fill="#fff"/><path d="M96.05,111v8.89h-2.59v-23.12h2.59v2.49c1.309167-1.811694,3.404818-2.889245,5.64-2.9c4.39,0,7.44,3.32,7.44,8.75s-3,8.78-7.44,8.78c-2.233387-.008429-4.328689-1.082086-5.64-2.89Zm10.35-5.84c0-3.7-2-6.44-5.36-6.44-2.001044.026467-3.864962,1.0218-5,2.67v7.54c1.134137,1.653207,2.995598,2.658396,5,2.7c3.35-.05,5.36-2.82,5.36-6.52Z" fill="#fff"/><path d="M112.27,105.11c0-4.85,3.46-8.75,8.24-8.75c5,0,8,3.94,8,9v.64h-13.51c.020915,1.564812.666868,3.056248,1.793925,4.141981s2.641573,1.675547,4.206075,1.638019c1.94562.009514,3.81296-.76554,5.18-2.15l1.25,1.7c-1.776054,1.719458-4.168773,2.652762-6.64,2.59-4.95-.03-8.52-3.59-8.52-8.81Zm8.2-6.61c-3.56,0-5.32,3-5.46,5.54h11c.038918-1.480887-.532253-2.912733-1.57976-3.96024s-2.479353-1.618678-3.96024-1.57976Z" fill="#fff"/><path d="M131.75,105.11c0-5,3.35-8.75,8.33-8.75c2.398568-.127517,4.699756.962915,6.12,2.9l-1.72,1.56c-.956761-1.400448-2.565071-2.212153-4.26-2.15-3.53,0-5.78,2.74-5.78,6.44s2.25,6.47,5.78,6.47c1.695184.031344,3.293836-.786745,4.26-2.18l1.72,1.6c-1.420244,1.937085-3.721432,3.027517-6.12,2.9-4.98-.01-8.33-3.85-8.33-8.79Z" fill="#fff"/><path d="M150.39,110v-10.95h-2.77v-2.28h2.77v-4.56h2.61v4.56h3.39v2.28h-3.39v10.38c0,1.25.55,2.15,1.66,2.15.661357.005253,1.296515-.258194,1.76-.73l.76,2c-.84185.754906-1.951443,1.140381-3.08,1.07-2.47-.03-3.71-1.44-3.71-3.92Z" fill="#fff"/><path d="M159.59,92.65c.005464-.969749.790251-1.754536,1.76-1.76.463227.002632.906283.189868,1.231011.520227s.504321.776569.498989,1.239773c.005418.460464-.175109.903651-.500729,1.229271s-.768807.506147-1.229271.500729c-.463204.005332-.909413-.17426-1.239773-.498989s-.517595-.767784-.520227-1.231011Zm.45,20.83v-16.71h2.59v16.71Z" fill="#fff"/><path d="M172.28,113.48l-6.95-16.71h2.83l5.54,13.7l5.57-13.7h2.8l-6.95,16.71Z" fill="#fff"/><path d="M195.21,113.48v-1.9c-1.417702,1.540398-3.437826,2.384247-5.53,2.31-1.512994.070962-2.989259-.479528-4.086394-1.523789s-1.719811-2.491559-1.723606-4.006211c0-3.77,3-5.5,5.81-5.5c2.084885-.101866,4.108475.721475,5.53,2.25v-3c0-2.22-1.8-3.5-4.22-3.5-1.968322-.034082-3.847897.817601-5.12,2.32l-1.21-1.8c1.727175-1.836337,4.160357-2.841664,6.68-2.76c3.56,0,6.47,1.59,6.47,5.63v11.49Zm0-3.53v-3.18c-1.125618-1.340391-2.811487-2.079808-4.56-2-2.46,0-4.16,1.52-4.16,3.63s1.7,3.67,4.16,3.67c1.761973.07072,3.453363-.697081,4.56-2.07Z" fill="#fff"/><path d="M224.09,113.48v-2.48c-1.309167,1.811694-3.404818,2.889245-5.64,2.9-4.35,0-7.43-3.32-7.43-8.75s3.08-8.78,7.43-8.78c2.242393.020027,4.33945,1.113173,5.64,2.94v-8.9h2.6v23.07Zm0-4.57v-7.54c-1.134137-1.653207-2.995598-2.658396-5-2.7-3.39,0-5.4,2.77-5.4,6.47s2,6.44,5.4,6.44c2.001474-.024792,3.866114-1.02051,5-2.67Z" fill="#fff"/><path d="M230.9,105.11c0-4.85,3.46-8.75,8.24-8.75c5.05,0,8,3.94,8,9v.64h-13.47c.020915,1.564812.666868,3.056248,1.793925,4.141981s2.641573,1.675547,4.206075,1.638019c1.945397.008382,3.812316-.766497,5.18-2.15l1.25,1.7c-1.776054,1.719458-4.168773,2.652762-6.64,2.59-4.99-.03-8.56-3.59-8.56-8.81Zm8.2-6.61c-3.56,0-5.32,3-5.46,5.54h11c.038918-1.480887-.532253-2.912733-1.57976-3.96024s-2.479353-1.618678-3.96024-1.57976Z" fill="#fff"/><path d="M273.76,113.48l-5.85-9.17h-4.63v9.17h-2.87v-23.07h9.27c4.22,0,7.26,2.69,7.26,7c.176467,3.502877-2.499263,6.495235-6,6.71l6.23,9.41ZM274,97.36c.021531-1.217918-.474502-2.387823-1.36488-3.219096s-2.091546-1.245908-3.30512-1.140904h-6.05v8.82h6.05c1.227437.091026,2.435984-.342186,3.326079-1.192256s1.378415-2.03742,1.343921-3.267744Z" fill="#fff"/><path d="M280.91,92.65c.0109-.971364.798589-1.754604,1.77-1.76.463227.002632.906283.189868,1.231011.520227s.504321.776569.498989,1.239773c.005418.460464-.175109.903651-.500729,1.229271s-.768807.506147-1.229271.500729c-.464138.005335-.911382-.173943-1.243328-.498387s-.521398-.767475-.526672-1.231613Zm.45,20.83v-16.71h2.64v16.71Z" fill="#fff"/><path d="M288.18,105.11c0-4.85,3.46-8.75,8.23-8.75c5,0,8,3.94,8,9v.64h-13.41c.018218,1.565683.66333,3.058714,1.790991,4.145027s2.643738,1.675227,4.209009,1.634973c1.948638.009944,3.819242-.764969,5.19-2.15l1.24,1.7c-1.775433,1.720426-4.168574,2.653895-6.64,2.59-5.05-.03-8.61-3.59-8.61-8.81Zm8.2-6.61c-3.57,0-5.33,3-5.47,5.54h11c.033031-1.477434-.538647-2.904291-1.582667-3.950199s-2.469842-1.620162-3.947333-1.589801Z" fill="#fff"/><path d="M307.2,111.26l1.31-1.86c1.428575,1.515151,3.417575,2.375846,5.5,2.38c2.56,0,4-1.21,4-2.87c0-4-10.34-1.55-10.34-7.75c0-2.62,2.21-4.8,6.19-4.8c2.292767-.07428,4.51447.801375,6.14,2.42l-1.21,1.8c-1.275285-1.404388-3.104141-2.176165-5-2.11-2.28,0-3.7,1.14-3.7,2.63c0,3.63,10.34,1.24,10.34,7.74c0,2.81-2.24,5-6.53,5-2.494523.106595-4.921226-.827867-6.7-2.58Z" fill="#fff"/><path d="M324.67,117.73l1.31-1.86c1.346254,1.573963,3.365568,2.406977,5.43,2.24c2.77,0,5.4-1.35,5.4-4.87v-2.53c-1.298548,1.837057-3.390888,2.950003-5.64,3-4.36,0-7.44-3.26-7.44-8.65s3-8.68,7.44-8.68c2.242393.020027,4.33945,1.113173,5.64,2.94v-2.55h2.59v16.47c0,5.29-3.91,7-8,7-2.504202.200245-4.968508-.718835-6.73-2.51Zm12.14-9.06v-7.33c-1.152806-1.62818-3.005711-2.617631-5-2.67-3.39,0-5.4,2.67-5.4,6.37s2,6.33,5.4,6.33c2.001814-.051364,3.859122-1.05431,5-2.7Z" fill="#fff"/><path d="M343.62,105.11c0-4.85,3.18-8.75,8.27-8.75s8.26,3.9,8.26,8.75-3.18,8.78-8.26,8.78-8.27-3.89-8.27-8.78Zm13.8,0c0-3.39-2-6.44-5.53-6.44s-5.54,3-5.54,6.44s2,6.47,5.54,6.47s5.53-3.05,5.53-6.47Z" fill="#fff"/><path d="M363,111.26l1.32-1.86c1.425783,1.519127,3.416588,2.380603,5.5,2.38c2.56,0,4-1.21,4-2.87c0-4-10.35-1.55-10.35-7.75c0-2.62,2.22-4.8,6.19-4.8c2.312737-.087427,4.55802.788958,6.2,2.42l-1.21,1.8c-1.278488-1.39986-3.10515-2.170711-5-2.11-2.28,0-3.7,1.14-3.7,2.63c0,3.63,10.35,1.24,10.35,7.74c0,2.81-2.25,5-6.54,5-2.515037.123543-4.96681-.812193-6.76-2.58Z" fill="#fff"/></svg>